P2
80
60
255
6 222 11 52 60 39 174 228 242 183 107 86 7 35 251 136 230 210 86 232 93 250 117 61 203 29 229 26 70 226 35 164 81 121 87 230 186 91 90 188 200 140 48 187 97 59 7 138 3 16 138 107 101 22 238 222 104 235 60 165 142 95 182 165 119 136 193 143 35 235 181 125 115 52 10 72 76 172 226 114 
249 131 163 115 231 205 86 35 164 252 209 16 14 140 66 177 18 135 149 52 199 118 75 58 236 111 193 117 149 226 173 192 191 228 124 33 223 211 145 182 200 75 235 128 119 149 129 166 1 221 226 197 159 202 222 155 31 77 197 109 95 178 196 65 52 130 2 49 19 222 205 242 58 156 211 199 118 170 134 26 
188 201 41 20 153 33 155 165 72 174 238 149 133 36 9 106 133 92 5 24 131 8 214 195 246 31 177 14 61 238 35 195 211 158 76 13 50 152 149 180 145 10 124 84 61 129 104 226 221 113 69 88 28 102 175 201 69 85 169 188 62 161 143 44 195 46 186 47 68 243 117 193 227 118 81 26 248 155 157 84 
74 88 191 26 168 230 104 178 188 53 60 158 49 143 77 166 247 136 226 66 24 148 117 220 10 227 113 172 133 96 60 128 234 18 60 4 5 109 49 226 114 142 228 80 87 184 82 116 26 228 220 82 187 184 148 241 10 168 197 169 118 162 244 139 85 29 30 86 145 48 181 78 125 175 242 231 249 65 108 62 
155 221 90 230 139 244 11 200 185 68 15 82 191 33 26 140 69 205 115 61 227 83 172 158 172 70 175 213 45 156 229 193 123 226 213 122 17 241 9 66 155 95 51 150 152 221 105 98 131 218 62 110 184 196 180 141 127 138 183 21 217 249 109 193 87 236 253 50 12 105 161 219 252 21 174 86 161 160 16 192 
18 57 5 0 38 87 103 139 100 155 152 146 241 236 65 54 175 112 102 218 199 98 7 109 75 117 89 240 70 198 241 127 150 47 165 126 17 35 175 152 48 39 179 205 253 97 139 188 118 151 118 24 172 172 3 42 179 70 98 5 93 81 43 45 255 164 90 71 221 31 96 108 218 82 86 201 218 191 17 71 
215 175 149 230 18 154 168 228 242 15 144 131 9 46 223 223 117 184 17 32 91 251 9 208 115 212 30 51 190 94 18 17 64 224 152 76 83 1 74 134 124 85 188 237 225 198 57 64 131 154 244 18 1 64 17 66 99 98 147 199 118 43 117 202 176 32 114 87 32 117 181 216 205 37 149 227 77 200 178 224 
124 149 60 122 93 171 6 213 225 81 6 250 237 153 41 8 62 105 34 80 11 194 162 129 6 212 152 235 41 55 153 200 44 109 57 108 192 199 59 82 177 121 179 226 234 206 205 250 226 44 224 53 100 171 111 67 201 6 84 119 169 179 216 72 189 238 165 65 55 205 150 149 25 90 24 98 24 10 153 84 
132 4 140 117 66 229 20 124 82 243 225 48 125 9 252 5 229 193 52 118 188 190 173 49 31 129 156 138 64 88 127 129 65 174 94 224 221 84 88 235 206 230 169 123 44 255 120 77 76 127 90 195 166 192 24 76 1 46 102 71 213 121 151 22 250 56 207 233 24 135 75 170 251 7 91 70 191 91 48 166 
61 11 100 111 93 185 10 198 243 49 128 73 172 16 193 127 25 121 206 22 92 115 249 113 0 95 48 11 157 53 58 158 135 31 189 238 75 45 38 145 20 25 49 40 7 13 139 239 162 198 41 190 164 113 96 24 133 22 103 29 178 132 233 219 176 36 130 184 18 90 149 89 171 141 161 209 210 92 93 146 
118 225 62 252 208 121 170 83 15 254 7 44 204 228 15 107 91 71 77 92 247 145 92 92 163 249 176 44 41 208 215 253 227 53 232 238 59 161 158 183 155 87 212 16 66 167 135 86 242 201 69 225 156 216 245 148 66 112 28 3 21 77 126 223 106 66 174 38 137 212 91 247 119 204 153 210 210 33 248 107 
144 153 110 86 238 194 33 14 37 203 217 45 147 56 159 237 204 89 48 104 187 211 76 102 94 193 157 240 201 50 222 85 47 37 49 175 87 140 0 145 122 21 177 244 214 33 118 25 85 137 217 158 131 111 94 180 208 208 101 233 95 20 207 231 14 110 51 220 51 123 106 122 121 43 38 190 198 176 147 252 
98 218 199 21 210 7 117 243 172 145 181 6 93 105 1 172 92 92 89 34 126 117 129 222 33 160 138 246 196 209 132 138 48 188 255 240 175 65 40 213 14 157 200 95 254 130 16 190 38 86 34 178 205 226 138 235 48 228 98 53 174 31 183 1 227 189 217 226 68 11 177 43 102 210 211 35 18 239 5 203 
122 15 42 130 120 194 1 135 94 164 2 165 31 147 160 26 210 128 171 42 55 210 36 168 209 215 193 38 95 78 158 113 217 164 0 100 19 16 243 48 214 115 109 177 241 111 37 120 16 236 191 198 54 2 233 221 185 226 51 162 69 79 206 198 221 230 49 96 28 88 143 29 242 171 113 231 1 104 63 88 
57 165 122 238 204 193 111 127 167 186 188 67 158 8 141 43 36 246 151 77 240 152 2 158 55 146 6 35 48 23 224 131 119 190 205 202 115 236 36 227 101 255 98 112 228 126 212 92 122 23 231 166 251 91 136 190 137 191 237 248 167 161 29 127 210 171 228 112 231 81 169 191 85 167 89 210 141 114 235 195 
67 191 126 164 44 19 197 31 172 189 144 86 86 163 145 251 183 124 19 20 182 46 76 43 9 204 5 26 181 107 235 4 39 240 115 152 167 184 93 31 249 241 27 117 186 100 5 131 195 73 6 135 22 236 186 225 34 166 53 14 249 6 134 205 250 201 225 127 182 162 197 52 93 189 224 248 219 58 86 112 
203 238 44 236 243 26 247 190 101 217 163 206 159 128 12 237 233 92 119 223 252 168 94 144 144 228 240 93 147 58 154 23 45 249 104 175 68 174 151 129 27 242 177 92 244 131 180 155 224 195 73 221 233 122 203 255 143 46 254 159 12 38 135 55 81 225 254 195 156 121 47 201 167 46 105 102 242 48 31 14 
57 111 215 147 104 62 131 9 88 79 122 33 135 148 27 177 123 123 195 19 252 235 16 93 96 127 186 78 30 111 30 72 164 197 101 173 214 108 171 78 230 8 241 212 87 96 127 110 209 173 137 64 234 14 57 164 175 206 246 113 173 122 189 41 80 233 127 62 50 236 45 45 100 140 171 164 45 83 48 152 
166 99 207 149 185 188 146 105 102 130 146 176 231 166 131 191 87 219 209 217 141 109 11 158 178 37 136 26 144 19 100 4 7 192 172 67 38 35 94 218 91 66 33 57 200 116 254 212 104 195 45 234 193 8 247 87 20 26 32 73 167 78 176 232 127 154 3 214 37 125 244 203 67 251 149 141 226 219 133 194 
177 139 223 76 97 26 42 39 52 206 30 244 55 39 239 198 41 36 237 239 243 15 179 51 204 34 191 204 125 211 64 129 10 178 55 35 233 92 120 156 91 42 229 249 233 224 103 158 245 236 102 61 105 96 59 236 247 59 7 57 0 35 110 247 94 94 92 247 52 69 169 224 233 61 102 243 198 200 50 96 
51 7 64 179 144 190 225 183 176 155 113 5 141 111 235 137 85 180 86 4 44 165 12 218 15 35 69 41 2 104 225 154 94 141 78 1 112 239 102 121 174 109 213 87 229 128 247 234 64 104 94 222 189 125 82 140 205 40 49 181 244 238 101 106 40 70 210 79 36 57 237 189 135 246 101 146 138 211 61 46 
66 148 108 60 7 32 159 185 40 45 136 231 99 217 49 172 192 162 46 49 47 149 49 114 15 28 98 225 35 100 21 24 187 205 4 29 209 144 227 191 168 74 52 245 255 229 166 110 96 238 207 224 8 47 254 238 239 37 35 253 29 188 17 169 242 118 74 23 58 20 112 186 14 181 197 221 40 58 183 155 
23 200 93 183 242 36 226 44 129 191 77 51 141 59 188 244 253 81 70 243 171 27 209 228 83 231 214 143 241 214 204 241 207 207 41 229 11 123 41 78 233 69 84 178 83 167 166 45 241 89 125 134 12 83 223 55 222 251 163 89 96 55 236 43 157 157 220 105 158 98 14 91 113 62 56 15 122 244 168 246 
69 212 183 198 51 11 21 75 2 89 240 138 239 76 34 121 73 248 99 71 186 173 53 68 35 40 134 13 222 86 106 244 130 166 18 38 151 202 46 116 181 148 34 91 82 160 38 40 23 71 32 7 253 142 97 30 159 121 147 168 11 137 40 155 42 230 79 44 68 44 241 42 139 148 158 28 120 193 60 152 
209 71 86 100 172 147 102 165 61 226 251 91 99 92 188 67 227 179 95 74 13 1 79 160 243 247 104 151 203 246 98 106 20 255 217 75 2 230 103 254 96 212 97 169 121 131 225 114 227 72 53 246 251 168 183 170 174 179 255 185 181 34 180 241 217 240 252 18 198 193 68 182 21 71 108 229 189 158 187 114 
152 78 205 2 4 171 171 222 137 0 128 125 97 245 14 226 62 147 187 237 23 51 85 0 235 187 3 60 87 136 155 32 147 115 132 52 248 153 151 239 91 120 1 19 188 87 249 67 145 2 51 172 133 22 96 57 13 125 208 249 74 226 9 249 179 64 157 33 185 40 230 82 59 125 45 70 187 21 205 158 
155 244 68 172 95 78 207 166 158 44 252 19 220 223 6 110 140 40 21 66 169 138 93 27 254 219 40 40 217 205 22 110 43 239 139 23 70 70 35 116 82 125 42 240 48 83 150 113 24 222 176 75 93 16 172 33 238 177 168 247 220 26 63 210 219 187 134 86 1 171 176 250 71 64 188 112 47 250 131 74 
154 237 70 201 144 1 68 92 197 145 87 71 215 254 117 124 35 25 11 204 140 102 142 55 36 160 75 55 164 10 102 161 203 135 83 244 88 185 116 131 235 227 111 107 107 149 206 226 154 179 238 207 111 220 212 150 110 174 105 47 167 252 235 213 72 158 195 204 144 6 183 240 232 143 152 27 73 247 174 172 
137 85 248 222 76 107 9 231 35 33 157 87 54 153 90 133 52 51 2 112 148 194 79 191 41 221 8 92 246 112 112 102 174 93 13 28 178 32 222 169 151 91 163 199 28 68 89 102 44 241 74 178 46 175 25 47 241 153 224 173 206 226 74 116 73 116 159 3 48 187 37 131 142 173 233 253 19 139 247 82 
105 249 51 246 199 151 167 63 151 122 204 105 65 118 117 56 105 125 93 101 169 228 2 5 146 219 79 93 38 240 239 151 45 254 123 71 222 164 145 146 2 197 222 116 93 139 143 142 113 205 30 156 227 175 104 173 148 227 34 2 84 245 48 134 114 149 29 173 182 253 15 142 96 47 176 31 136 219 72 117 
230 158 15 6 91 80 201 34 190 253 94 192 110 106 161 72 203 202 153 201 74 166 207 188 34 5 190 85 138 237 67 0 121 196 38 189 87 29 19 181 149 227 43 114 64 249 43 233 150 243 130 172 128 152 8 104 54 142 8 1 203 192 62 137 79 157 204 142 56 203 224 37 80 81 151 124 238 240 252 171 
101 200 82 240 153 29 212 129 128 175 240 179 211 182 121 31 142 78 204 51 13 227 237 155 112 207 157 151 153 80 14 151 163 180 115 12 229 113 198 188 152 209 86 143 19 193 89 55 36 47 130 204 100 135 214 237 159 175 92 217 63 23 238 74 133 106 142 243 183 153 189 239 191 4 247 112 225 207 84 157 
214 130 73 146 95 105 7 29 197 89 150 253 223 207 193 9 49 186 28 232 145 130 253 183 28 99 12 81 190 120 18 162 133 105 41 214 0 8 240 24 105 197 114 234 220 87 140 15 39 163 47 149 158 94 133 84 57 185 39 248 213 232 213 142 187 24 199 53 197 45 132 187 67 72 119 124 156 243 185 29 
237 171 136 103 94 61 166 203 183 101 85 219 193 10 33 80 119 74 142 17 111 169 231 12 29 149 203 142 110 148 221 76 252 113 221 38 157 236 214 72 77 127 119 75 142 249 159 111 52 245 37 75 31 75 103 192 235 1 180 64 170 103 192 28 228 127 109 200 163 17 200 186 1 57 226 216 248 169 69 56 
50 64 24 57 160 38 180 252 34 8 80 128 19 161 161 197 187 99 205 145 163 133 198 182 162 137 64 0 241 210 189 49 7 180 197 224 254 4 83 77 89 15 153 211 124 139 190 198 197 1 243 101 117 245 64 151 130 8 171 16 101 33 11 198 97 179 145 105 85 39 89 244 30 108 162 89 166 206 24 181 
96 37 138 99 129 184 169 223 114 24 13 82 52 158 113 62 23 43 77 224 232 68 90 92 17 169 19 31 101 254 126 83 45 92 122 189 245 239 136 214 249 74 188 113 127 94 151 230 112 140 239 35 108 193 166 225 64 5 233 154 3 107 204 215 123 4 188 207 55 227 211 105 209 0 93 37 33 107 243 132 
172 247 116 35 163 47 190 203 191 61 117 124 225 38 121 131 239 163 99 123 149 157 129 78 161 80 251 24 120 243 109 8 210 186 27 86 39 7 5 147 133 141 152 180 87 84 86 113 114 121 239 188 59 197 98 97 245 46 109 15 98 179 67 123 182 255 200 116 127 165 191 98 133 246 68 183 219 181 156 163 
89 87 216 129 97 188 56 70 123 202 239 86 131 164 54 45 71 192 185 106 114 136 63 207 6 194 56 15 96 117 42 86 206 175 95 199 192 251 7 71 125 55 2 97 197 230 232 43 25 0 116 153 153 203 98 224 64 70 254 24 249 53 17 144 127 237 151 237 68 174 177 120 153 79 138 188 29 238 138 234 
42 56 242 70 46 225 68 76 55 234 44 20 187 87 90 243 130 10 186 80 255 144 202 19 188 216 46 44 138 240 189 58 244 19 14 90 37 147 54 251 211 106 223 106 224 141 7 200 131 94 180 33 86 7 173 28 95 230 242 31 89 141 186 116 177 93 55 87 120 60 244 196 57 94 125 51 41 163 98 86 
47 180 239 127 125 129 215 62 253 131 26 77 166 191 184 237 234 55 90 140 186 68 29 112 106 248 174 4 126 139 123 107 220 163 101 205 31 16 117 240 209 143 69 163 32 5 147 165 60 145 16 152 237 223 231 248 25 15 159 239 213 172 241 52 114 31 238 76 87 71 67 205 206 231 205 112 11 207 177 55 
103 215 17 21 146 4 22 6 199 96 127 210 80 107 251 70 155 74 204 245 223 84 156 62 218 200 100 195 129 42 41 8 151 233 221 156 251 175 52 182 30 18 59 221 162 248 171 244 39 144 120 139 133 93 213 84 71 117 244 29 244 175 43 187 236 81 174 246 219 91 5 150 137 123 128 91 174 94 117 219 
186 244 183 250 218 33 207 233 145 23 187 84 243 170 161 220 72 178 163 150 30 189 60 230 15 36 246 184 110 200 247 180 180 168 225 237 39 203 206 1 82 233 170 190 41 139 28 213 85 129 50 83 246 193 119 23 112 14 192 203 15 20 252 102 93 224 115 164 156 23 148 108 132 146 6 150 161 145 245 30 
210 249 210 94 49 199 110 142 123 52 58 94 91 157 197 83 80 233 220 14 200 169 177 164 243 212 65 166 73 180 181 168 31 74 238 124 200 33 110 162 170 83 246 248 83 68 141 234 32 119 139 36 67 173 27 236 255 103 30 50 177 212 190 148 1 19 14 124 179 201 16 221 255 234 252 225 24 195 84 120 
73 64 63 124 170 174 8 181 143 35 9 27 18 36 42 29 179 22 73 242 250 101 41 123 26 131 72 109 10 50 221 54 88 206 147 36 199 184 0 57 84 98 189 75 139 216 251 207 45 40 244 46 11 124 9 46 148 49 135 135 42 217 253 156 82 143 206 187 12 177 52 95 56 165 25 91 167 13 121 242 
175 105 139 116 70 250 234 26 156 91 21 114 189 56 27 237 99 48 241 199 64 245 21 217 34 120 71 127 31 250 220 58 136 183 230 114 214 229 168 23 207 188 63 217 47 87 250 13 196 47 5 81 115 53 42 134 238 150 20 168 219 90 51 189 40 98 162 255 190 93 189 50 82 168 189 18 53 79 189 141 
233 170 166 185 49 144 41 16 161 78 147 243 52 24 134 28 98 32 209 12 45 215 108 108 47 146 113 167 45 24 46 253 233 125 217 207 242 242 70 206 237 37 246 77 119 60 67 249 250 66 235 224 18 157 67 187 235 204 103 34 196 150 68 123 41 141 18 46 206 173 209 229 228 191 178 91 168 23 221 163 
112 42 247 143 235 131 202 72 99 144 18 16 213 225 235 132 70 98 135 212 112 88 9 167 245 253 216 166 131 176 184 9 10 251 252 179 218 232 123 245 232 68 203 77 141 217 7 6 63 249 190 244 69 236 49 48 37 104 183 255 190 109 76 235 26 144 177 101 247 245 248 23 147 249 142 139 204 233 189 172 
223 216 89 24 242 29 234 79 140 205 184 42 140 5 140 69 143 176 104 114 224 18 132 119 230 53 249 26 202 27 248 114 106 100 38 115 4 248 195 156 11 43 127 197 97 168 141 7 188 131 63 215 140 168 180 153 163 246 139 240 245 97 49 118 130 116 110 120 227 192 22 224 76 206 69 114 239 106 107 254 
95 67 140 119 97 26 107 50 232 243 34 243 23 31 113 2 88 37 127 183 4 9 27 178 246 187 122 59 112 245 112 9 241 54 139 21 129 4 12 241 133 35 182 127 183 251 156 228 15 239 129 244 91 21 63 86 43 79 162 63 32 111 123 134 46 218 81 138 94 181 241 121 155 132 94 46 185 234 245 250 
107 248 126 123 15 111 184 224 65 36 114 154 5 170 165 7 221 99 242 62 142 236 35 167 117 23 134 229 68 118 229 1 188 170 180 192 105 201 94 147 189 56 49 136 239 145 38 60 222 103 249 226 220 213 81 13 161 46 117 22 226 82 255 171 3 135 34 47 9 24 194 130 141 78 84 211 187 207 129 40 
113 214 14 103 154 68 0 180 75 233 7 76 228 33 75 232 99 59 86 74 87 239 129 110 131 150 91 121 213 193 225 144 196 48 231 53 50 50 11 31 216 253 170 240 1 131 197 124 196 244 123 254 55 26 219 233 12 141 245 149 249 161 201 169 183 245 120 165 252 120 79 136 190 185 161 88 59 101 44 203 
197 242 170 63 247 129 140 180 47 35 87 132 56 238 243 12 238 90 97 185 76 207 170 96 162 73 126 7 2 135 2 238 224 95 116 218 135 59 224 99 196 34 223 82 55 30 121 227 22 67 154 19 201 8 44 17 173 59 226 58 147 78 210 255 214 97 178 149 231 241 8 55 238 203 241 97 182 135 61 93 
113 110 97 48 249 136 143 0 44 65 122 176 156 205 189 170 92 111 150 128 218 118 180 69 215 197 20 78 74 141 139 89 158 238 108 220 25 9 237 199 102 58 65 176 32 18 55 255 2 229 244 147 218 168 230 208 172 54 84 30 106 12 4 90 168 223 85 239 44 147 180 189 185 113 249 84 150 180 19 129 
93 217 214 130 73 135 9 239 209 47 219 161 167 6 193 185 75 85 70 64 79 181 227 175 241 36 236 16 77 154 203 119 117 46 68 217 227 149 72 106 99 78 210 31 54 142 185 14 132 152 235 229 74 10 120 231 230 74 236 122 14 15 255 124 107 233 89 81 112 112 37 217 234 162 129 63 174 246 105 233 
84 143 159 161 98 237 44 102 84 146 141 81 255 7 66 77 101 198 139 106 184 176 77 9 92 205 171 45 11 59 188 188 209 126 217 165 109 121 102 106 246 173 166 202 196 176 29 222 187 10 62 65 178 3 175 151 80 108 42 5 242 174 43 15 108 243 220 132 36 196 115 41 223 205 17 18 225 61 87 166 
90 154 143 174 253 134 210 211 124 187 212 121 49 228 43 235 125 254 163 108 178 92 252 214 22 109 163 26 95 241 121 48 119 77 101 148 135 104 111 225 111 118 146 188 129 227 204 147 14 162 20 160 139 4 187 220 111 86 113 160 171 108 151 239 115 129 188 128 140 191 65 23 137 0 194 167 140 138 166 108 
226 141 103 44 123 175 116 101 168 222 76 116 186 56 83 71 8 242 54 127 190 168 31 159 57 199 214 36 43 62 249 49 196 11 218 225 249 188 40 19 189 115 125 3 105 148 38 229 178 199 234 53 189 164 83 86 115 231 47 212 234 220 23 98 12 57 158 142 185 115 140 6 138 89 197 29 35 129 231 75 
90 239 109 54 200 49 45 237 110 14 63 250 202 222 11 247 111 122 4 115 129 193 195 24 159 178 158 255 194 15 139 161 64 176 39 160 174 171 220 74 156 164 228 159 68 203 124 75 4 43 236 1 55 53 78 97 94 194 178 156 174 231 53 195 38 123 220 240 0 98 132 37 229 42 8 1 139 227 213 82 
144 151 115 201 53 59 72 246 84 114 163 35 68 26 117 151 185 3 127 31 135 252 147 237 33 225 128 50 13 9 172 6 18 47 226 190 221 152 216 229 211 22 255 200 117 44 206 152 59 144 58 244 242 16 87 230 210 176 39 10 54 244 103 24 140 246 220 164 105 41 233 126 203 110 135 205 169 93 129 167 
112 147 194 161 202 253 214 134 31 68 64 72 115 149 35 223 13 63 203 209 253 220 34 201 233 238 168 201 225 61 146 32 197 122 227 154 164 15 228 27 15 119 19 253 116 201 216 138 251 155 142 29 251 238 24 81 235 64 58 51 29 113 9 33 187 196 78 173 148 211 119 169 0 245 200 53 173 66 197 146 
